<?xml version="1.0" ?><svg height="512" id="Layer_1" version="1.1" viewBox="0 0 512 512" width="512" xml:space="preserve" xmlns="http://www.w3.org/2000/svg" xmlns:cc="http://creativecommons.org/ns#" xmlns:dc="http://purl.org/dc/elements/1.1/" xmlns:inkscape="http://www.inkscape.org/namespaces/inkscape" xmlns:rdf="http://www.w3.org/1999/02/22-rdf-syntax-ns#" xmlns:sodipodi="http://sodipodi.sourceforge.net/DTD/sodipodi-0.dtd" xmlns:svg="http://www.w3.org/2000/svg"><defs id="defs12"/><g id="g3128"><rect height="512" id="rect2987" rx="64" ry="64" style="fill:#4086cd;fill-opacity:1;fill-rule:nonzero;stroke:none" width="512" x="0" y="0"/><path d="M 256,56 C 145.5467,56 56.000001,145.54667 56.000001,256 56.000001,366.45333 145.5467,456 256,456 366.4533,456 456,366.45333 456,256 456,145.54667 366.4533,56 256,56 z m 0,360 C 167.64,416 96.000001,344.36 96.000001,256 96.000001,167.64 167.64,96 256,96 c 88.36,0 160,71.64 160,160 0,88.36 -71.64,160 -160,160 z m 73.2444,-106.40444 c 1.2845,17.01333 -11.4844,32.50222 -28.5422,34.62666 -17.0311,2.11111 -31.9289,-9.95555 -33.2044,-26.96889 -1.3022,-16.99111 11.5111,-32.50222 28.5422,-34.60888 5.3911,-0.66223 10.5467,0.08 15.1556,1.95111 v -83.53334 l -80,14.88 V 320.29778 H 231.04 c 0.044,0.29333 0.1111,0.56444 0.1111,0.85778 1.2933,17.01333 -11.4844,32.48444 -28.5155,34.60889 -17.0667,2.11111 -31.9112,-9.96 -33.2045,-26.95112 -1.3111,-17.01333 11.4667,-32.51555 28.5156,-34.60888 5.3911,-0.68445 10.5466,0.08 15.1555,1.96888 v -120.28889 -0.0222 l 116.0578,-19.82222 0.1111,-0.04 v 0.0178 l 0.044,-0.0178 -0.044,0.52889 v 152.22222 h -0.1555 c 0.053,0.29778 0.1066,0.54667 0.1288,0.84445 z" id="iTunes" style="fill:#ffffff;fill-opacity:1"/></g></svg>